<svg version="1.1" id="Layer_1" xmlns="http://www.w3.org/2000/svg" xmlns:xlink="http://www.w3.org/1999/xlink" x="0px" y="0px"
	 width="100%" viewBox="0 0 306 261" enable-background="new 0 0 306 261" xml:space="preserve">
<path fill="#FCFCFC" opacity="1.000000" stroke="none" 
	d="
M169.000000,0.999999 
	C214.982071,1.000000 260.964142,1.000000 306.973114,1.000000 
	C306.973114,87.948151 306.973114,174.896317 306.973114,261.922241 
	C205.091644,261.922241 103.183212,261.922241 1.137389,261.922241 
	C1.137389,175.000137 1.137389,88.000099 1.130345,1.000036 
	C53.103096,1.000000 105.082886,1.000000 157.564484,1.362653 
	C155.760269,3.528734 153.143829,5.048998 151.198593,7.181501 
	C138.493729,21.109362 134.468918,37.873699 135.887405,56.205875 
	C136.594360,65.342621 139.630005,74.009239 147.452866,79.096573 
	C156.425613,84.931686 157.888580,93.414490 158.138275,102.578140 
	C158.442200,113.732056 158.430634,124.916382 157.938446,136.060287 
	C157.717087,141.072632 159.998962,143.682541 163.633606,145.997955 
	C167.714996,143.526276 169.239578,140.295975 169.069550,135.564133 
	C168.674805,124.579674 168.757172,113.573181 168.884399,102.578377 
	C168.914932,99.939011 171.126755,96.615570 170.134628,94.828545 
	C168.338989,91.594231 169.720688,89.621735 171.287170,87.677376 
	C173.457428,84.983604 176.348785,82.874916 178.553207,80.203629 
	C182.115814,75.886536 186.493652,71.777214 188.553513,66.768463 
	C195.982758,48.703526 189.225525,19.766506 175.175537,6.359606 
	C173.205811,4.480036 171.062790,2.782045 169.000000,0.999999 
M270.231812,65.376465 
	C270.231812,65.376465 270.201019,65.330444 269.635223,65.695061 
	C269.398438,66.067314 269.161621,66.439568 268.338715,67.001930 
	C267.939484,67.688309 267.540283,68.374687 266.548004,69.408737 
	C258.297821,79.086044 250.107513,88.815964 241.713455,98.366798 
	C240.779526,99.429420 238.685822,99.472725 237.129990,99.988770 
	C237.136490,98.370834 236.475525,96.250359 237.255310,95.214630 
	C243.377014,87.083824 249.774536,79.160690 256.668243,71.002586 
	C257.042114,70.320839 257.415985,69.639091 258.315582,68.637657 
	C258.905701,67.815926 259.495850,66.994194 260.679962,66.019241 
	C261.536865,64.716499 262.393768,63.413765 263.806305,61.770706 
	C263.889160,61.569946 263.972046,61.369186 264.650146,61.004322 
	C265.061676,60.327885 265.473206,59.651447 266.414520,58.597645 
	C266.931091,57.706177 267.447662,56.814709 268.338593,55.438854 
	C268.975891,54.665009 269.613159,53.891163 270.809723,52.894257 
	C271.197540,52.243992 271.585327,51.593727 272.272125,50.621250 
	C272.560913,50.172977 272.849701,49.724705 273.138458,49.276424 
	C272.772552,49.218208 272.406647,49.159988 271.229950,49.008801 
	C268.439758,51.915939 265.649597,54.823074 262.280182,58.011337 
	C261.260498,59.358337 260.240845,60.705338 258.632324,62.371159 
	C256.406372,64.882614 254.180420,67.394081 251.353622,70.029137 
	C250.925232,70.691284 250.496841,71.353432 249.505890,72.379097 
	C247.001907,75.248360 244.497925,78.117615 241.380966,81.126320 
	C240.637497,82.095161 239.894028,83.064011 238.591888,84.390625 
	C237.043655,86.224396 235.495422,88.058167 233.229614,90.140839 
	C231.447754,90.841606 229.665894,91.542374 227.902176,92.093605 
	C227.902176,92.093605 227.753204,92.115776 227.631393,91.302872 
	C227.469223,90.500771 227.307068,89.698669 227.641296,88.426056 
	C228.458954,87.346481 229.276627,86.266914 230.711868,85.033699 
	C231.410065,84.008568 232.108246,82.983444 233.368805,81.621483 
	C234.597580,80.118690 235.826355,78.615898 237.670929,76.968346 
	C238.371216,75.963081 239.071503,74.957825 240.329300,73.596947 
	C241.553421,72.065872 242.777542,70.534790 244.581757,68.868599 
	C244.999207,68.233971 245.416656,67.599342 246.421265,66.597794 
	C250.701080,61.199684 254.980911,55.801575 259.954346,50.460381 
	C261.391510,48.840881 262.828674,47.221378 264.440918,45.422146 
	C264.440918,45.422146 264.607727,45.234673 265.199585,45.146404 
	C265.540588,44.163536 265.881592,43.180668 266.222595,42.197796 
	C265.756378,41.897507 265.290131,41.597218 264.823914,41.296928 
	C262.446625,43.792183 260.069366,46.287434 257.082001,49.050854 
	C245.444412,60.881748 233.806824,72.712646 221.346405,84.553307 
	C220.560745,84.375877 219.775101,84.198448 218.740540,83.546028 
	C218.608170,83.425926 218.475784,83.305817 218.499161,82.369400 
	C218.586746,81.547905 218.674332,80.726402 219.262878,79.450706 
	C224.865189,73.335663 230.467499,67.220619 236.670074,60.957588 
	C237.100281,60.297379 237.530487,59.637173 238.504715,58.592377 
	C243.511139,53.333046 248.517578,48.073719 253.524002,42.814392 
	C253.164017,42.386078 252.804031,41.957767 252.444046,41.529453 
	C251.136353,42.285942 249.617355,42.820324 248.553192,43.832775 
	C235.822556,55.944775 223.167969,68.136681 210.473892,80.287170 
	C206.210648,84.367867 203.949783,89.380722 205.283005,95.121002 
	C207.514908,104.730522 202.704239,111.643242 197.190506,118.295990 
	C192.204819,124.311600 186.913223,130.080322 181.622345,135.834549 
	C175.815445,142.149994 169.855057,148.324295 163.416321,155.136993 
	C151.164764,140.193314 135.684647,129.084244 126.906281,112.128899 
	C126.699326,111.729179 126.234100,111.277298 125.822433,111.198273 
	C121.833473,110.432541 121.744362,107.165756 121.639503,104.255669 
	C121.502281,100.447227 122.358131,96.555382 121.864441,92.821358 
	C121.408310,89.371452 120.687889,85.133118 118.441383,82.878822 
	C105.247543,69.639145 91.572533,56.878979 77.671227,43.413971 
	C74.727516,40.600533 71.783798,37.787098 68.840088,34.973660 
	C68.219887,35.592842 67.599693,36.212025 66.979500,36.831207 
	C70.211235,40.030811 73.442970,43.230415 77.018433,46.986984 
	C87.592033,58.268879 98.165634,69.550766 108.542068,81.609360 
	C108.612450,82.134270 108.682831,82.659187 108.299858,83.702705 
	C106.892761,83.786606 105.485657,83.870506 103.890076,83.344955 
	C102.929062,82.558990 101.968056,81.773026 100.700706,80.458817 
	C99.816177,79.630470 98.931648,78.802132 97.959831,77.358253 
	C97.319244,76.883003 96.678650,76.407761 95.702576,75.361511 
	C86.602158,66.475792 77.501732,57.590073 68.469017,47.819447 
	C67.572495,47.025372 66.675972,46.231293 65.779449,45.437214 
	C65.321472,45.816135 64.863487,46.195057 64.405510,46.573978 
	C65.186920,47.818615 65.968323,49.063251 67.091217,50.883743 
	C75.506935,60.657043 83.921928,70.430969 92.338860,80.203217 
	C94.504143,82.717148 96.904640,85.073692 98.725342,87.815765 
	C99.402695,88.835892 98.729713,90.752625 98.672493,92.260498 
	C97.403641,91.963257 95.879028,92.007324 94.923820,91.291534 
	C93.355911,90.116608 92.148094,88.457176 90.804825,86.987076 
	C80.263046,75.449989 69.725166,63.909355 59.059662,51.688721 
	C58.214180,50.917862 57.368698,50.146999 56.138363,48.760834 
	C55.320686,48.829079 54.503006,48.897327 53.685329,48.965572 
	C54.144428,49.858887 54.603523,50.752201 55.271416,52.200756 
	C55.956059,52.868748 56.640701,53.536739 57.564003,54.890526 
	C62.771450,61.234081 67.978897,67.577637 73.216850,74.530586 
	C73.779572,75.078049 74.342300,75.625519 75.078613,76.760536 
	C75.780144,77.490929 76.481674,78.221321 77.233467,79.584427 
	C78.105850,80.478493 78.978226,81.372566 80.052948,82.903503 
	C83.122185,86.581062 86.191422,90.258621 89.293945,94.532310 
	C89.818863,95.099014 90.343773,95.665718 90.897438,96.950378 
	C90.622475,98.073135 90.347519,99.195892 89.328735,100.203705 
	C88.848923,100.335144 88.369102,100.466591 87.346504,100.171188 
	C85.848755,98.794014 84.351006,97.416840 82.776054,95.412216 
	C81.866776,94.577545 80.957504,93.742874 79.811790,92.286057 
	C71.607910,82.995346 63.404030,73.704643 55.200150,64.413933 
	C55.198753,66.964233 55.703468,68.867401 56.797928,70.328949 
	C66.209099,82.896675 75.665520,95.431808 85.244881,107.871605 
	C88.741539,112.412369 93.346199,115.729630 99.334747,114.874382 
	C108.857979,113.514336 115.042397,118.842987 120.800316,124.901695 
	C127.221985,131.658829 133.325928,138.725616 139.408310,145.795151 
	C144.468842,151.676987 149.297928,157.757950 154.482651,164.058289 
	C150.616394,167.714508 147.041565,170.927109 143.654861,174.327118 
	C129.338913,188.699310 114.918915,202.974869 100.932472,217.662399 
	C98.106216,220.630341 96.380035,225.060013 95.233559,229.122513 
	C93.186409,236.376495 99.267136,242.417511 106.389023,239.995346 
	C110.784988,238.500244 115.484116,235.972305 118.446869,232.530533 
	C129.502426,219.687408 139.944641,206.313309 150.516830,193.058563 
	C154.922943,187.534454 159.077820,181.809967 163.712357,175.694397 
	C165.610626,178.195541 167.013077,180.014893 168.385681,181.856491 
	C178.632233,195.604218 188.449234,209.703247 199.300186,222.955841 
	C204.465500,229.264374 211.315887,234.344604 217.957214,239.227386 
	C221.135208,241.563904 225.590302,241.760468 229.062592,238.455505 
	C232.327789,235.347656 233.501572,231.345154 231.271530,227.556870 
	C227.264603,220.750107 223.414505,213.530914 217.998367,207.936813 
	C204.456955,193.950485 190.071411,180.781662 176.036270,167.272659 
	C174.895203,166.174377 173.843155,164.983597 172.711288,163.795441 
	C177.743912,157.721069 182.091629,151.769897 187.161636,146.515701 
	C195.133331,138.254440 200.761032,127.654900 211.353729,121.964195 
	C211.803696,121.722458 211.754730,120.666061 212.191620,120.265800 
	C213.865326,118.732399 215.447205,116.496750 217.422897,116.023193 
	C221.261703,115.103081 225.473709,115.703613 229.286987,114.723930 
	C232.981506,113.774750 236.793839,112.177452 239.771713,109.859352 
	C242.700668,107.579323 244.646378,104.036201 247.612671,100.898178 
	C248.041428,100.250305 248.470169,99.602440 249.443085,98.692329 
	C250.004822,97.873573 250.566559,97.054810 251.716354,96.053139 
	C252.086929,95.354622 252.457489,94.656097 253.361633,93.649857 
	C253.932922,92.814384 254.504227,91.978912 255.654892,90.963921 
	C256.012360,90.273872 256.369843,89.583824 257.296539,88.525742 
	C261.904694,82.091095 266.512878,75.656456 271.697845,69.015007 
	C272.035492,68.324387 272.373169,67.633766 273.006775,66.356476 
	C273.102875,65.929718 273.198975,65.502960 273.938202,64.881195 
	C274.991760,63.184151 276.045319,61.487103 277.098877,59.790054 
	C276.493256,59.401119 275.887665,59.012184 275.282043,58.623249 
	C273.695129,60.682472 272.108246,62.741695 270.330292,64.971336 
	C270.330292,64.971336 270.259521,65.424370 270.231812,65.376465 
M64.234108,43.139988 
	C63.249348,42.655846 62.264587,42.171700 61.279827,41.687557 
	C60.967606,42.070007 60.655380,42.452461 60.343159,42.834911 
	C61.351456,44.136280 62.359753,45.437645 63.368050,46.739014 
	C63.849800,46.092068 64.331551,45.445122 64.800041,44.149117 
	C64.635262,44.008850 64.470482,43.868584 64.234108,43.139988 
M156.819611,253.695358 
	C162.874481,258.807068 168.890030,257.752533 172.028168,250.589890 
	C173.534241,247.152405 174.715942,243.253754 174.753189,239.550980 
	C174.869980,227.940720 174.320114,216.325119 174.132111,204.709930 
	C174.000641,196.588394 167.737610,192.196777 163.220261,184.842621 
	C159.399811,191.414383 154.916122,196.424850 153.519363,202.184006 
	C151.584625,210.161407 151.542358,218.698547 151.480057,227.001953 
	C151.413025,235.934998 151.362915,245.046356 156.819611,253.695358 
z"/>
<path fill="#0B0B0B" opacity="1.000000" stroke="none" 
	d="
M168.541931,0.999999 
	C171.062790,2.782045 173.205811,4.480036 175.175537,6.359606 
	C189.225525,19.766506 195.982758,48.703526 188.553513,66.768463 
	C186.493652,71.777214 182.115814,75.886536 178.553207,80.203629 
	C176.348785,82.874916 173.457428,84.983604 171.287170,87.677376 
	C169.720688,89.621735 168.338989,91.594231 170.134628,94.828545 
	C171.126755,96.615570 168.914932,99.939011 168.884399,102.578377 
	C168.757172,113.573181 168.674805,124.579674 169.069550,135.564133 
	C169.239578,140.295975 167.714996,143.526276 163.633606,145.997955 
	C159.998962,143.682541 157.717087,141.072632 157.938446,136.060287 
	C158.430634,124.916382 158.442200,113.732056 158.138275,102.578140 
	C157.888580,93.414490 156.425613,84.931686 147.452866,79.096573 
	C139.630005,74.009239 136.594360,65.342621 135.887405,56.205875 
	C134.468918,37.873699 138.493729,21.109362 151.198593,7.181501 
	C153.143829,5.048998 155.760269,3.528734 158.033142,1.362653 
	C161.361282,1.000000 164.722580,1.000000 168.541931,0.999999 
M160.482635,21.723875 
	C172.016434,19.794891 175.683380,29.448256 181.684418,36.424732 
	C182.247864,35.187195 183.217834,34.112080 183.032333,33.301369 
	C181.124435,24.963665 177.782944,17.249834 171.624603,11.150602 
	C166.156693,5.735183 160.993195,5.804989 155.502716,11.090281 
	C148.809952,17.532930 145.931290,26.084656 143.005341,34.552994 
	C142.647400,35.588985 143.218704,36.946049 143.312729,37.753654 
	C148.865921,32.408058 154.306992,27.170391 160.482635,21.723875 
z"/>
<path fill="#0B0B0B" opacity="1.000000" stroke="none" 
	d="
M73.186348,73.921196 
	C67.978897,67.577637 62.771450,61.234081 57.846085,54.344528 
	C58.480804,53.322289 58.833447,52.846046 59.186089,52.369808 
	C69.725166,63.909355 80.263046,75.449989 90.804825,86.987076 
	C92.148094,88.457176 93.355911,90.116608 94.923820,91.291534 
	C95.879028,92.007324 97.403641,91.963257 98.672493,92.260498 
	C98.729713,90.752625 99.402695,88.835892 98.725342,87.815765 
	C96.904640,85.073692 94.504143,82.717148 92.338860,80.203217 
	C83.921928,70.430969 75.506935,60.657043 67.129440,50.262653 
	C67.578880,49.329159 67.990089,49.016754 68.401306,48.704353 
	C77.501732,57.590073 86.602158,66.475792 95.867874,75.982559 
	C96.704491,77.060333 97.375809,77.517059 98.047119,77.973785 
	C98.931648,78.802132 99.816177,79.630470 100.853775,81.070801 
	C102.030754,82.439995 103.054657,83.197205 104.078560,83.954407 
	C105.485657,83.870506 106.892761,83.786606 108.761703,83.381104 
	C109.062103,82.317223 108.900665,81.574944 108.739235,80.832664 
	C98.165634,69.550766 87.592033,58.268879 76.947433,46.351440 
	C77.270866,45.129658 77.665291,44.543419 78.059715,43.957176 
	C91.572533,56.878979 105.247543,69.639145 118.441383,82.878822 
	C120.687889,85.133118 121.408310,89.371452 121.864441,92.821358 
	C122.358131,96.555382 121.502281,100.447227 121.639503,104.255669 
	C121.744362,107.165756 121.833473,110.432541 125.822433,111.198273 
	C126.234100,111.277298 126.699326,111.729179 126.906281,112.128899 
	C135.684647,129.084244 151.164764,140.193314 163.416321,155.136993 
	C169.855057,148.324295 175.815445,142.149994 181.622345,135.834549 
	C186.913223,130.080322 192.204819,124.311600 197.190506,118.295990 
	C202.704239,111.643242 207.514908,104.730522 205.283005,95.121002 
	C203.949783,89.380722 206.210648,84.367867 210.473892,80.287170 
	C223.167969,68.136681 235.822556,55.944775 248.553192,43.832775 
	C249.617355,42.820324 251.136353,42.285942 252.444046,41.529453 
	C252.804031,41.957767 253.164017,42.386078 253.524002,42.814392 
	C248.517578,48.073719 243.511139,53.333046 237.901932,58.801586 
	C236.889374,59.709057 236.479599,60.407314 236.069809,61.105576 
	C230.467499,67.220619 224.865189,73.335663 218.706055,79.699722 
	C218.213959,81.027733 218.278687,82.106712 218.343399,83.185699 
	C218.475784,83.305817 218.608170,83.425926 218.894073,84.081688 
	C220.088135,84.592743 221.128693,84.568138 222.169235,84.543541 
	C233.806824,72.712646 245.444412,60.881748 257.714600,49.119637 
	C258.651703,49.593433 258.956238,49.998451 259.260742,50.403465 
	C254.980911,55.801575 250.701080,61.199684 245.809631,66.801361 
	C244.799210,67.671188 244.400421,68.337448 244.001648,69.003708 
	C242.777542,70.534790 241.553421,72.065872 239.717911,73.803108 
	C238.422714,75.043877 237.738922,76.078491 237.055130,77.113106 
	C235.826355,78.615898 234.597580,80.118690 232.746277,81.810257 
	C231.447266,83.061798 230.770767,84.124565 230.094284,85.187340 
	C229.276627,86.266914 228.458954,87.346481 227.138702,88.791107 
	C227.008484,90.142700 227.380844,91.129234 227.753204,92.115776 
	C227.753204,92.115776 227.902176,92.093605 227.956375,92.499374 
	C231.394989,94.669937 233.079773,93.086121 233.947205,89.891937 
	C235.495422,88.058167 237.043655,86.224396 239.204987,84.194351 
	C240.543365,82.994354 241.268646,81.990616 241.993942,80.986877 
	C244.497925,78.117615 247.001907,75.248360 250.115906,72.175194 
	C251.135452,71.282707 251.544968,70.594124 251.954468,69.905533 
	C254.180420,67.394081 256.406372,64.882614 259.237946,62.289600 
	C259.924347,63.529514 260.005157,64.850990 260.085968,66.172462 
	C259.495850,66.994194 258.905701,67.815926 257.727448,68.832718 
	C256.788544,69.743034 256.437805,70.458298 256.087067,71.173561 
	C249.774536,79.160690 243.377014,87.083824 237.255310,95.214630 
	C236.475525,96.250359 237.136490,98.370834 237.129990,99.988770 
	C238.685822,99.472725 240.779526,99.429420 241.713455,98.366798 
	C250.107513,88.815964 258.297821,79.086044 267.179016,69.201523 
	C268.181641,68.266808 268.553253,67.539314 268.924835,66.811829 
	C269.161621,66.439568 269.398438,66.067314 270.138367,66.146362 
	C270.801331,67.472389 270.961182,68.347107 271.121063,69.221817 
	C266.512878,75.656456 261.904694,82.091095 256.693420,88.759941 
	C255.752075,89.710579 255.413803,90.427017 255.075531,91.143448 
	C254.504227,91.978912 253.932922,92.814384 252.762360,93.838905 
	C251.818176,94.763992 251.473236,95.500023 251.128296,96.236053 
	C250.566559,97.054810 250.004822,97.873573 248.845413,98.842712 
	C247.839676,99.677841 247.431595,100.362572 247.023529,101.047318 
	C244.646378,104.036201 242.700668,107.579323 239.771713,109.859352 
	C236.793839,112.177452 232.981506,113.774750 229.286987,114.723930 
	C225.473709,115.703613 221.261703,115.103081 217.422897,116.023193 
	C215.447205,116.496750 213.865326,118.732399 212.191620,120.265800 
	C211.754730,120.666061 211.803696,121.722458 211.353729,121.964195 
	C200.761032,127.654900 195.133331,138.254440 187.161636,146.515701 
	C182.091629,151.769897 177.743912,157.721069 172.711288,163.795441 
	C173.843155,164.983597 174.895203,166.174377 176.036270,167.272659 
	C190.071411,180.781662 204.456955,193.950485 217.998367,207.936813 
	C223.414505,213.530914 227.264603,220.750107 231.271530,227.556870 
	C233.501572,231.345154 232.327789,235.347656 229.062592,238.455505 
	C225.590302,241.760468 221.135208,241.563904 217.957214,239.227386 
	C211.315887,234.344604 204.465500,229.264374 199.300186,222.955841 
	C188.449234,209.703247 178.632233,195.604218 168.385681,181.856491 
	C167.013077,180.014893 165.610626,178.195541 163.712357,175.694397 
	C159.077820,181.809967 154.922943,187.534454 150.516830,193.058563 
	C139.944641,206.313309 129.502426,219.687408 118.446869,232.530533 
	C115.484116,235.972305 110.784988,238.500244 106.389023,239.995346 
	C99.267136,242.417511 93.186409,236.376495 95.233559,229.122513 
	C96.380035,225.060013 98.106216,220.630341 100.932472,217.662399 
	C114.918915,202.974869 129.338913,188.699310 143.654861,174.327118 
	C147.041565,170.927109 150.616394,167.714508 154.482651,164.058289 
	C149.297928,157.757950 144.468842,151.676987 139.408310,145.795151 
	C133.325928,138.725616 127.221985,131.658829 120.800316,124.901695 
	C115.042397,118.842987 108.857979,113.514336 99.334747,114.874382 
	C93.346199,115.729630 88.741539,112.412369 85.244881,107.871605 
	C75.665520,95.431808 66.209099,82.896675 56.797928,70.328949 
	C55.703468,68.867401 55.198753,66.964233 55.200150,64.413933 
	C63.404030,73.704643 71.607910,82.995346 79.911819,92.936081 
	C80.958992,94.403961 81.906120,95.221817 82.853256,96.039665 
	C84.351006,97.416840 85.848755,98.794014 87.675819,100.635254 
	C88.694275,100.839088 89.383415,100.578873 90.072556,100.318649 
	C90.347519,99.195892 90.622475,98.073135 90.944702,96.265076 
	C90.414871,95.031914 89.837769,94.484047 89.260666,93.936180 
	C86.191422,90.258621 83.122185,86.581062 79.997925,82.240112 
	C79.023010,80.701721 78.103104,79.826721 77.183205,78.951714 
	C76.481674,78.221321 75.780144,77.490929 75.030151,76.138107 
	C74.383240,74.984192 73.784790,74.452690 73.186348,73.921196 
z"/>
<path fill="#090909" opacity="1.000000" stroke="none" 
	d="
M156.588867,253.404419 
	C151.362915,245.046356 151.413025,235.934998 151.480057,227.001953 
	C151.542358,218.698547 151.584625,210.161407 153.519363,202.184006 
	C154.916122,196.424850 159.399811,191.414383 163.220261,184.842621 
	C167.737610,192.196777 174.000641,196.588394 174.132111,204.709930 
	C174.320114,216.325119 174.869980,227.940720 174.753189,239.550980 
	C174.715942,243.253754 173.534241,247.152405 172.028168,250.589890 
	C168.890030,257.752533 162.874481,258.807068 156.588867,253.404419 
z"/>
<path fill="#494949" opacity="1.000000" stroke="none" 
	d="
M77.865471,43.685574 
	C77.665291,44.543419 77.270866,45.129658 76.775574,46.072960 
	C73.442970,43.230415 70.211235,40.030811 66.979500,36.831207 
	C67.599693,36.212025 68.219887,35.592842 68.840088,34.973660 
	C71.783798,37.787098 74.727516,40.600533 77.865471,43.685574 
z"/>
<path fill="#373737" opacity="1.000000" stroke="none" 
	d="
M259.607544,50.431923 
	C258.956238,49.998451 258.651703,49.593433 258.019653,48.985550 
	C260.069366,46.287434 262.446625,43.792183 264.823914,41.296928 
	C265.290131,41.597218 265.756378,41.897507 266.222595,42.197796 
	C265.881592,43.180668 265.540588,44.163536 264.725311,45.051064 
	C264.145844,44.857601 264.040649,44.759480 263.935455,44.661362 
	C264.045563,44.974869 264.155701,45.288372 264.265839,45.601879 
	C262.828674,47.221378 261.391510,48.840881 259.607544,50.431923 
z"/>
<path fill="#0B0B0B" opacity="1.000000" stroke="none" 
	d="
M262.859406,57.730209 
	C265.649597,54.823074 268.439758,51.915939 271.566895,49.513817 
	C271.926910,50.327045 271.950012,50.635258 271.973145,50.943466 
	C271.585327,51.593727 271.197540,52.243992 270.205078,53.080975 
	C269.055023,54.152878 268.509644,55.038067 267.964233,55.923248 
	C267.447662,56.814709 266.931091,57.706177 265.817230,58.816551 
	C264.831604,59.746445 264.443268,60.457428 264.054932,61.168419 
	C263.972046,61.369186 263.889160,61.569946 263.465027,61.394180 
	C263.035645,59.921841 262.947510,58.826023 262.859406,57.730209 
z"/>
<path fill="#343434" opacity="1.000000" stroke="none" 
	d="
M270.521332,64.800919 
	C272.108246,62.741695 273.695129,60.682472 275.282043,58.623249 
	C275.887665,59.012184 276.493256,59.401119 277.098877,59.790054 
	C276.045319,61.487103 274.991760,63.184151 273.156494,64.913925 
	C271.756989,64.898087 271.139160,64.849503 270.521332,64.800919 
z"/>
<path fill="#2E2E2E" opacity="1.000000" stroke="none" 
	d="
M262.569794,57.870773 
	C262.947510,58.826023 263.035645,59.921841 263.187195,61.564339 
	C262.393768,63.413765 261.536865,64.716499 260.382965,66.095856 
	C260.005157,64.850990 259.924347,63.529514 259.532349,62.130188 
	C260.240845,60.705338 261.260498,59.358337 262.569794,57.870773 
z"/>
<path fill="#414141" opacity="1.000000" stroke="none" 
	d="
M64.813293,44.798172 
	C64.331551,45.445122 63.849800,46.092068 63.368050,46.739014 
	C62.359753,45.437645 61.351456,44.136280 60.343159,42.834911 
	C60.655380,42.452461 60.967606,42.070007 61.279827,41.687557 
	C62.264587,42.171700 63.249348,42.655846 64.057564,43.627117 
	C64.191780,44.342220 64.502541,44.570194 64.813293,44.798172 
z"/>
<path fill="#2E2E2E" opacity="1.000000" stroke="none" 
	d="
M233.588409,90.016388 
	C233.079773,93.086121 231.394989,94.669937 227.947296,92.574142 
	C229.665894,91.542374 231.447754,90.841606 233.588409,90.016388 
z"/>
<path fill="#373737" opacity="1.000000" stroke="none" 
	d="
M59.122875,52.029266 
	C58.833447,52.846046 58.480804,53.322289 57.726757,54.001633 
	C56.640701,53.536739 55.956059,52.868748 55.602760,51.401226 
	C56.130474,50.193176 56.326843,49.784657 56.523216,49.376137 
	C57.368698,50.146999 58.214180,50.917862 59.122875,52.029266 
z"/>
<path fill="#414141" opacity="1.000000" stroke="none" 
	d="
M103.984314,83.649689 
	C103.054657,83.197205 102.030754,82.439995 101.006950,81.334923 
	C101.968056,81.773026 102.929062,82.558990 103.984314,83.649689 
z"/>
<path fill="#373737" opacity="1.000000" stroke="none" 
	d="
M77.208336,79.268066 
	C78.103104,79.826721 79.023010,80.701721 79.896759,81.921677 
	C78.978226,81.372566 78.105850,80.478493 77.208336,79.268066 
z"/>
<path fill="#2E2E2E" opacity="1.000000" stroke="none" 
	d="
M241.687454,81.056595 
	C241.268646,81.990616 240.543365,82.994354 239.484314,84.015472 
	C239.894028,83.064011 240.637497,82.095161 241.687454,81.056595 
z"/>
<path fill="#2E2E2E" opacity="1.000000" stroke="none" 
	d="
M237.363037,77.040726 
	C237.738922,76.078491 238.422714,75.043877 239.439163,73.980919 
	C239.071503,74.957825 238.371216,75.963081 237.363037,77.040726 
z"/>
<path fill="#2E2E2E" opacity="1.000000" stroke="none" 
	d="
M230.403076,85.110519 
	C230.770767,84.124565 231.447266,83.061798 232.465088,81.978668 
	C232.108246,82.983444 231.410065,84.008568 230.403076,85.110519 
z"/>
<path fill="#373737" opacity="1.000000" stroke="none" 
	d="
M82.814651,95.725937 
	C81.906120,95.221817 80.958992,94.403961 80.030045,93.247154 
	C80.957504,93.742874 81.866776,94.577545 82.814651,95.725937 
z"/>
<path fill="#2E2E2E" opacity="1.000000" stroke="none" 
	d="
M227.692291,91.709320 
	C227.380844,91.129234 227.008484,90.142700 226.890518,89.026367 
	C227.307068,89.698669 227.469223,90.500771 227.692291,91.709320 
z"/>
<path fill="#414141" opacity="1.000000" stroke="none" 
	d="
M68.435165,48.261902 
	C67.990089,49.016754 67.578880,49.329159 66.958694,49.974724 
	C65.968323,49.063251 65.186920,47.818615 64.405510,46.573978 
	C64.863487,46.195057 65.321472,45.816135 65.779449,45.437214 
	C66.675972,46.231293 67.572495,47.025372 68.435165,48.261902 
z"/>
<path fill="#4E4E4E" opacity="1.000000" stroke="none" 
	d="
M218.421280,82.777550 
	C218.278687,82.106712 218.213959,81.027733 218.455582,79.926826 
	C218.674332,80.726402 218.586746,81.547905 218.421280,82.777550 
z"/>
<path fill="#4E4E4E" opacity="1.000000" stroke="none" 
	d="
M221.757812,84.548424 
	C221.128693,84.568138 220.088135,84.592743 219.018524,84.319183 
	C219.775101,84.198448 220.560745,84.375877 221.757812,84.548424 
z"/>
<path fill="#2E2E2E" opacity="1.000000" stroke="none" 
	d="
M268.151428,55.681053 
	C268.509644,55.038067 269.055023,54.152878 269.925415,53.192505 
	C269.613159,53.891163 268.975891,54.665009 268.151428,55.681053 
z"/>
<path fill="#343434" opacity="1.000000" stroke="none" 
	d="
M255.365204,91.053680 
	C255.413803,90.427017 255.752075,89.710579 256.408813,88.943954 
	C256.369843,89.583824 256.012360,90.273872 255.365204,91.053680 
z"/>
<path fill="#373737" opacity="1.000000" stroke="none" 
	d="
M89.277306,94.234245 
	C89.837769,94.484047 90.414871,95.031914 90.930328,95.906097 
	C90.343773,95.665718 89.818863,95.099014 89.277306,94.234245 
z"/>
<path fill="#343434" opacity="1.000000" stroke="none" 
	d="
M251.422333,96.144592 
	C251.473236,95.500023 251.818176,94.763992 252.495575,93.992767 
	C252.457489,94.656097 252.086929,95.354622 251.422333,96.144592 
z"/>
<path fill="#343434" opacity="1.000000" stroke="none" 
	d="
M247.318085,100.972748 
	C247.431595,100.362572 247.839676,99.677841 248.573334,98.973831 
	C248.470169,99.602440 248.041428,100.250305 247.318085,100.972748 
z"/>
<path fill="#373737" opacity="1.000000" stroke="none" 
	d="
M89.700645,100.261177 
	C89.383415,100.578873 88.694275,100.839088 87.947205,100.848679 
	C88.369102,100.466591 88.848923,100.335144 89.700645,100.261177 
z"/>
<path fill="#373737" opacity="1.000000" stroke="none" 
	d="
M73.201599,74.225891 
	C73.784790,74.452690 74.383240,74.984192 74.943352,75.844330 
	C74.342300,75.625519 73.779572,75.078049 73.201599,74.225891 
z"/>
<path fill="#494949" opacity="1.000000" stroke="none" 
	d="
M108.640656,81.221008 
	C108.900665,81.574944 109.062103,82.317223 108.988373,83.121796 
	C108.682831,82.659187 108.612450,82.134270 108.640656,81.221008 
z"/>
<path fill="#414141" opacity="1.000000" stroke="none" 
	d="
M98.003479,77.666016 
	C97.375809,77.517059 96.704491,77.060333 96.035614,76.268066 
	C96.678650,76.407761 97.319244,76.883003 98.003479,77.666016 
z"/>
<path fill="#2E2E2E" opacity="1.000000" stroke="none" 
	d="
M251.654053,69.967331 
	C251.544968,70.594124 251.135452,71.282707 250.397186,71.993439 
	C250.496841,71.353432 250.925232,70.691284 251.654053,69.967331 
z"/>
<path fill="#2E2E2E" opacity="1.000000" stroke="none" 
	d="
M256.377655,71.088074 
	C256.437805,70.458298 256.788544,69.743034 257.464569,68.992554 
	C257.415985,69.639091 257.042114,70.320839 256.377655,71.088074 
z"/>
<path fill="#343434" opacity="1.000000" stroke="none" 
	d="
M271.409454,69.118416 
	C270.961182,68.347107 270.801331,67.472389 270.421265,65.964058 
	C270.201019,65.330444 270.231812,65.376465 270.518127,65.853851 
	C271.439941,66.535217 272.075378,66.739189 272.710846,66.943153 
	C272.373169,67.633766 272.035492,68.324387 271.409454,69.118416 
z"/>
<path fill="#343434" opacity="1.000000" stroke="none" 
	d="
M268.631775,66.906876 
	C268.553253,67.539314 268.181641,68.266808 267.475525,69.027679 
	C267.540283,68.374687 267.939484,67.688309 268.631775,66.906876 
z"/>
<path fill="#2E2E2E" opacity="1.000000" stroke="none" 
	d="
M244.291687,68.936150 
	C244.400421,68.337448 244.799210,67.671188 245.516052,66.984825 
	C245.416656,67.599342 244.999207,68.233971 244.291687,68.936150 
z"/>
<path fill="#0B0B0B" opacity="1.000000" stroke="none" 
	d="
M272.858826,66.649818 
	C272.075378,66.739189 271.439941,66.535217 270.531982,65.877808 
	C270.259521,65.424370 270.330292,64.971336 270.425812,64.886124 
	C271.139160,64.849503 271.756989,64.898087 272.834961,65.011429 
	C273.198975,65.502960 273.102875,65.929718 272.858826,66.649818 
z"/>
<path fill="#2E2E2E" opacity="1.000000" stroke="none" 
	d="
M264.352539,61.086369 
	C264.443268,60.457428 264.831604,59.746445 265.552368,59.005234 
	C265.473206,59.651447 265.061676,60.327885 264.352539,61.086369 
z"/>
<path fill="#4E4E4E" opacity="1.000000" stroke="none" 
	d="
M236.369934,61.031582 
	C236.479599,60.407314 236.889374,59.709057 237.629913,58.993881 
	C237.530487,59.637173 237.100281,60.297379 236.369934,61.031582 
z"/>
<path fill="#2E2E2E" opacity="1.000000" stroke="none" 
	d="
M272.122620,50.782356 
	C271.950012,50.635258 271.926910,50.327045 271.972290,49.560303 
	C272.406647,49.159988 272.772552,49.218208 273.138458,49.276428 
	C272.849701,49.724705 272.560913,50.172977 272.122620,50.782356 
z"/>
<path fill="#373737" opacity="1.000000" stroke="none" 
	d="
M55.498360,51.123604 
	C54.603523,50.752201 54.144428,49.858887 53.685329,48.965572 
	C54.503006,48.897327 55.320686,48.829079 56.330788,49.068485 
	C56.326843,49.784657 56.130474,50.193176 55.498360,51.123604 
z"/>
<path fill="#0B0B0B" opacity="1.000000" stroke="none" 
	d="
M64.806671,44.473640 
	C64.502541,44.570194 64.191780,44.342220 64.093361,43.921280 
	C64.470482,43.868584 64.635262,44.008850 64.806671,44.473640 
z"/>
<path fill="#EDEDED" opacity="1.000000" stroke="none" 
	d="
M160.115356,21.828300 
	C154.306992,27.170391 148.865921,32.408058 143.312729,37.753654 
	C143.218704,36.946049 142.647400,35.588985 143.005341,34.552994 
	C145.931290,26.084656 148.809952,17.532930 155.502716,11.090281 
	C160.993195,5.804989 166.156693,5.735183 171.624603,11.150602 
	C177.782944,17.249834 181.124435,24.963665 183.032333,33.301369 
	C183.217834,34.112080 182.247864,35.187195 181.684418,36.424732 
	C175.683380,29.448256 172.016434,19.794891 160.115356,21.828300 
z"/>
<path fill="#0B0B0B" opacity="1.000000" stroke="none" 
	d="
M264.353394,45.512012 
	C264.155701,45.288372 264.045563,44.974869 263.935455,44.661362 
	C264.040649,44.759480 264.145844,44.857601 264.429382,45.095200 
	C264.607727,45.234673 264.440918,45.422146 264.353394,45.512012 
z"/>
</svg>